<svg width="30" height="25" viewBox="0 0 30 25" fill="none" xmlns="http://www.w3.org/2000/svg">
<path d="M24.238 4.10156H5.59341C4.9135 4.10156 4.26143 4.32791 3.78065 4.73083C3.29988 5.13374 3.02979 5.6802 3.02979 6.25V17.1875C3.02979 17.7573 3.29988 18.3038 3.78065 18.7067C4.26143 19.1096 4.9135 19.3359 5.59341 19.3359H14.2165V21.2891H11.1868C11.0013 21.2891 10.8235 21.3508 10.6924 21.4607C10.5613 21.5706 10.4876 21.7196 10.4876 21.875C10.4876 22.0304 10.5613 22.1794 10.6924 22.2893C10.8235 22.3992 11.0013 22.4609 11.1868 22.4609H18.6446C18.83 22.4609 19.0079 22.3992 19.139 22.2893C19.2701 22.1794 19.3438 22.0304 19.3438 21.875C19.3438 21.7196 19.2701 21.5706 19.139 21.4607C19.0079 21.3508 18.83 21.2891 18.6446 21.2891H15.6149V19.3359H24.238C24.9179 19.3359 25.5699 19.1096 26.0507 18.7067C26.5315 18.3038 26.8016 17.7573 26.8016 17.1875V6.25C26.8016 5.6802 26.5315 5.13374 26.0507 4.73083C25.5699 4.32791 24.9179 4.10156 24.238 4.10156ZM5.59341 5.27344H24.238C24.547 5.27344 24.8434 5.37633 25.0619 5.55947C25.2805 5.74261 25.4032 5.991 25.4032 6.25V14.2578H4.42813V6.25C4.42813 5.991 4.5509 5.74261 4.76943 5.55947C4.98796 5.37633 5.28436 5.27344 5.59341 5.27344ZM24.238 18.1641H5.59341C5.28436 18.1641 4.98796 18.0612 4.76943 17.878C4.5509 17.6949 4.42813 17.4465 4.42813 17.1875V15.4297H25.4032V17.1875C25.4032 17.4465 25.2805 17.6949 25.0619 17.878C24.8434 18.0612 24.547 18.1641 24.238 18.1641Z" fill="white"/>
</svg>
